<svg aria-hidden="true" style="position: absolute; width: 0; height: 0; overflow: hidden;" version="1.1" xmlns="http://www.w3.org/2000/svg" xmlns:xlink="http://www.w3.org/1999/xlink">
<defs>
<symbol id="book" viewBox="0 0 32 32">
<path  d="M19.428 9.083h7.999v2.297h-7.999v-2.297z"></path>
<path  d="M19.428 14.825h7.999v2.297h-7.999v-2.297z"></path>
<path  d="M19.428 20.567h7.999v2.297h-7.999v-2.297z"></path>
<path  d="M29.712 3.341h-27.424c-0.606 0.001-1.187 0.243-1.615 0.673s-0.669 1.014-0.67 1.623v20.672c0.001 0.609 0.242 1.193 0.67 1.623s1.009 0.673 1.615 0.673h27.424c0.606-0.001 1.187-0.243 1.615-0.674s0.669-1.014 0.67-1.623v-20.672c-0.001-0.609-0.242-1.193-0.67-1.623s-1.009-0.673-1.615-0.673zM2.288 5.638h12.569v20.672h-12.569v-20.672zM17.142 26.31v-20.672h12.569l0.002 20.672h-12.571z"></path>
</symbol>
<symbol id="map" viewBox="0 0 32 32">
<path  d="M13.111 18.667c3.554 0 6.444-2.791 6.444-6.222s-2.89-6.222-6.444-6.222c-3.554 0-6.444 2.791-6.444 6.222s2.89 6.222 6.444 6.222zM13.111 9.333c1.777 0 3.222 1.395 3.222 3.111s-1.445 3.111-3.222 3.111c-1.777 0-3.222-1.395-3.222-3.111s1.445-3.111 3.222-3.111z"></path>
<path  d="M12.193 31.262c0.268 0.191 0.589 0.293 0.918 0.293s0.65-0.103 0.918-0.293c0.481-0.339 11.794-8.479 11.748-18.64 0-6.96-5.683-12.622-12.667-12.622s-12.667 5.663-12.667 12.614c-0.046 10.169 11.267 18.309 11.748 18.648zM13.111 3.156c5.239 0 9.5 4.246 9.5 9.475 0.033 7.002-6.948 13.29-9.5 15.352-2.551-2.064-9.533-8.353-9.5-15.36 0-5.221 4.261-9.467 9.5-9.467z"></path>
</symbol>
<symbol id="shop" viewBox="0 0 32 32">
<path  d="M30.8 6.326v-5.061c0-0.699-0.572-1.264-1.28-1.264h-27.040c-0.708 0-1.28 0.565-1.28 1.264v5.061c-0.668 0.040-1.2 0.589-1.2 1.26v5.204c-0.003 0.956 0.193 1.903 0.576 2.782 0.172 0.403 0.384 0.782 0.624 1.142v13.632c0 0.695 0.572 1.264 1.28 1.264h27.040c0.708 0 1.28-0.565 1.28-1.264v-13.632c0.244-0.36 0.453-0.743 0.624-1.142 0.38-0.881 0.576-1.818 0.576-2.782v-5.204c0-0.672-0.532-1.221-1.2-1.26zM4.080 2.845h23.84v3.477h-23.84v-3.477zM18.56 28.769h-5.12v-4.113h5.12v4.113zM27.936 28.769h-6.816v-5.378c0-0.699-0.572-1.264-1.28-1.264h-7.68c-0.708 0-1.28 0.565-1.28 1.264v5.378h-6.8v-9.57c0.116 0.055 0.236 0.111 0.36 0.158 0.892 0.371 1.84 0.557 2.816 0.557s1.92-0.186 2.816-0.557c0.552-0.229 1.072-0.522 1.548-0.873 0.008-0.004 0.016-0.004 0.024 0 0.477 0.353 0.997 0.646 1.548 0.873 0.892 0.371 1.84 0.557 2.816 0.557s1.92-0.186 2.816-0.557c0.552-0.229 1.072-0.522 1.548-0.873 0.008-0.004 0.016-0.004 0.024 0 0.477 0.353 0.997 0.646 1.548 0.873 0.892 0.371 1.84 0.557 2.816 0.557s1.92-0.186 2.816-0.557c0.12-0.051 0.24-0.103 0.36-0.158v9.57zM29.12 12.79c0 2.363-1.96 4.279-4.372 4.279-1.632 0-3.056-0.873-3.808-2.169-0.116-0.198-0.324-0.32-0.556-0.32h-0.024c-0.228 0-0.44 0.122-0.556 0.32-0.384 0.661-0.938 1.21-1.606 1.591s-1.427 0.58-2.198 0.578c-1.628 0-3.048-0.869-3.8-2.161-0.12-0.201-0.336-0.328-0.572-0.328s-0.456 0.126-0.572 0.328c-0.386 0.659-0.941 1.205-1.609 1.585s-1.425 0.578-2.195 0.577c-2.412 0-4.372-1.916-4.372-4.279v-3.603c0-0.012 0.008-0.020 0.020-0.020h26.2c0.012 0 0.020 0.008 0.020 0.020v3.603z"></path>
</symbol>
<symbol id="vector" viewBox="0 0 57 32">
<path  d="M51.141 14.556c-0.682 0.005-1.358 0.135-1.994 0.384l-6.803-5.671c0.167-0.618 0.286-1.26 0.286-1.936 0-4.004-3.16-7.222-7.093-7.222s-7.093 3.218-7.093 7.222c0 1.144 0.284 2.21 0.743 3.169l-8.253 9.932c-0.33-0.063-0.665-0.097-1.001-0.101-0.508 0-0.987 0.087-1.453 0.214l-7.271-7.404c0.128-0.471 0.213-0.959 0.213-1.476 0-3.201-2.531-5.778-5.674-5.778s-5.674 2.577-5.674 5.778c0 3.201 2.531 5.778 5.674 5.778 0.508 0 0.987-0.087 1.453-0.214l7.271 7.404c-0.136 0.48-0.208 0.977-0.213 1.476 0 3.201 2.531 5.778 5.674 5.778s5.674-2.577 5.674-5.778c0-0.685-0.136-1.329-0.349-1.938l8.264-9.943c0.644 0.191 1.311 0.326 2.014 0.326 1.12-0.006 2.222-0.285 3.214-0.812l6.806 5.671c-0.053 0.303-0.084 0.61-0.091 0.919 0 3.201 2.531 5.778 5.674 5.778s5.674-2.577 5.674-5.778c0-3.201-2.531-5.778-5.674-5.778z"></path>
</symbol>
<symbol id="achivment" viewBox="0 0 24 32">
<path  d="M6.043 22.663c-0.541-0.543-0.259-0.39-1.563-0.741-0.592-0.159-1.112-0.466-1.582-0.832l-2.823 6.952c-0.273 0.673 0.237 1.404 0.96 1.377l3.278-0.126 2.255 2.393c0.498 0.527 1.371 0.363 1.645-0.31l3.239-7.976c-0.675 0.377-1.423 0.599-2.197 0.599-1.213 0-2.353-0.474-3.211-1.336zM23.818 28.043l-2.823-6.952c-0.47 0.367-0.991 0.673-1.582 0.832-1.311 0.353-1.024 0.199-1.563 0.741-0.858 0.861-1.999 1.336-3.212 1.336-0.774 0-1.523-0.222-2.197-0.599l3.239 7.976c0.273 0.673 1.147 0.837 1.645 0.31l2.256-2.393 3.279 0.126c0.723 0.028 1.233-0.704 0.96-1.377zM16.364 21.249c0.951-0.972 1.060-0.888 2.414-1.259 0.864-0.237 1.54-0.928 1.771-1.811 0.465-1.775 0.345-1.561 1.615-2.859 0.633-0.647 0.88-1.59 0.648-2.474-0.465-1.774-0.465-1.526 0-3.302 0.231-0.884-0.016-1.827-0.648-2.474-1.27-1.299-1.149-1.085-1.615-2.859-0.231-0.884-0.907-1.574-1.771-1.811-1.735-0.476-1.526-0.351-2.797-1.651-0.633-0.647-1.556-0.9-2.42-0.663-1.734 0.475-1.492 0.476-3.229 0-0.864-0.237-1.787 0.016-2.42 0.663-1.27 1.299-1.061 1.175-2.796 1.651-0.864 0.237-1.54 0.928-1.771 1.811-0.465 1.774-0.345 1.561-1.615 2.859-0.633 0.647-0.88 1.59-0.648 2.474 0.465 1.773 0.465 1.525 0 3.301-0.231 0.884 0.016 1.827 0.648 2.474 1.27 1.299 1.149 1.084 1.615 2.859 0.231 0.884 0.907 1.574 1.771 1.811 1.393 0.381 1.496 0.321 2.413 1.259 0.823 0.842 2.106 0.993 3.095 0.364 0.396-0.252 0.855-0.386 1.323-0.386s0.928 0.134 1.323 0.386c0.989 0.629 2.271 0.478 3.094-0.364zM6.076 10.996c0-3.314 2.628-6.001 5.87-6.001s5.87 2.687 5.87 6.001c0 3.314-2.628 6.001-5.87 6.001s-5.87-2.687-5.87-6.001z"></path>
</symbol>
<symbol id="bag" viewBox="0 0 37 32">
<path  d="M33.24 6.654h-3.957v-3.957c0-0.7-0.278-1.371-0.773-1.865s-1.166-0.773-1.865-0.773h-15.827c-0.7 0-1.371 0.278-1.865 0.773s-0.773 1.166-0.773 1.865v3.957h-3.957c-1.049 0-2.056 0.417-2.798 1.159s-1.159 1.748-1.159 2.798v18.465c0 0.7 0.278 1.371 0.773 1.865s1.166 0.773 1.865 0.773h31.654c0.7 0 1.371-0.278 1.865-0.773s0.773-1.166 0.773-1.865v-18.465c0-1.049-0.417-2.056-1.159-2.798s-1.748-1.159-2.798-1.159zM10.818 2.697h15.827v3.957h-15.827v-3.957zM34.559 29.076h-31.654v-11.87h10.551v6.595h10.551v-6.595h10.551v11.87zM16.094 17.205h5.276v3.957h-5.276v-3.957zM2.905 14.568v-3.957c0-0.35 0.139-0.685 0.386-0.933s0.583-0.386 0.933-0.386h29.016c0.35 0 0.685 0.139 0.933 0.386s0.386 0.583 0.386 0.933v3.957h-31.654z"></path>
</symbol>
<symbol id="speed" viewBox="0 0 39 32">
<path  d="M36.696 9.064l-2.46 3.7c1.186 2.366 1.767 4.99 1.69 7.635s-0.809 5.231-2.13 7.525h-27.72c-1.718-2.98-2.429-6.434-2.030-9.85s1.89-6.613 4.249-9.115c2.359-2.503 5.462-4.179 8.849-4.779s6.877-0.094 9.953 1.445l3.7-2.46c-3.767-2.416-8.235-3.498-12.69-3.074s-8.639 2.329-11.883 5.412-5.36 7.164-6.011 11.592c-0.65 4.428 0.203 8.945 2.424 12.83 0.349 0.605 0.85 1.107 1.454 1.458s1.288 0.538 1.986 0.542h27.7c0.705 0.003 1.398-0.181 2.009-0.532s1.119-0.858 1.471-1.468c1.843-3.192 2.767-6.832 2.672-10.516s-1.207-7.271-3.212-10.364l-0.020 0.020zM17.116 22.744c0.371 0.372 0.813 0.667 1.298 0.868s1.006 0.305 1.532 0.305 1.046-0.104 1.532-0.305c0.486-0.201 0.927-0.496 1.298-0.868l11.32-16.98-16.98 11.32c-0.372 0.371-0.667 0.813-0.868 1.298s-0.305 1.006-0.305 1.532 0.104 1.046 0.305 1.532c0.201 0.486 0.496 0.927 0.868 1.298z"></path>
</symbol>
<symbol id="send" viewBox="0 0 32 32">
<path  d="M30.805 0.524c-0.175-0.182-0.397-0.307-0.639-0.362s-0.494-0.037-0.726 0.051l-28.601 10.816c-0.247 0.097-0.459 0.27-0.609 0.496s-0.23 0.494-0.23 0.768c0 0.274 0.080 0.542 0.23 0.768s0.362 0.399 0.609 0.496l12.48 5.192 4.992 12.98c0.094 0.245 0.255 0.457 0.462 0.608s0.454 0.236 0.708 0.244c0.263-0.006 0.518-0.094 0.731-0.253s0.376-0.382 0.465-0.639l10.4-29.745c0.089-0.239 0.11-0.5 0.062-0.751s-0.164-0.483-0.335-0.669zM19.482 27.443l-3.627-9.464 6.227-6.476-1.833-1.906-6.279 6.53-9.048-3.826 22.79-8.558-8.229 23.701z"></path>
</symbol>
<symbol id="phone" viewBox="0 0 32 32">
<path  d="M24.857 17.331c-0.156-0.157-0.342-0.281-0.546-0.365s-0.423-0.128-0.644-0.128c-0.221 0-0.44 0.044-0.644 0.128s-0.39 0.209-0.546 0.365l-2.684 2.684c-1.244-0.37-3.566-1.212-5.038-2.684s-2.313-3.793-2.684-5.038l2.684-2.684c0.156-0.156 0.281-0.342 0.365-0.546s0.128-0.423 0.128-0.644c0-0.221-0.044-0.44-0.128-0.644s-0.209-0.39-0.365-0.546l-6.735-6.735c-0.156-0.156-0.342-0.281-0.546-0.365s-0.423-0.128-0.644-0.128c-0.221 0-0.44 0.044-0.644 0.128s-0.39 0.209-0.546 0.365l-4.566 4.566c-0.64 0.64-1 1.519-0.987 2.416 0.039 2.398 0.673 10.725 7.237 17.289s14.891 7.196 17.29 7.237h0.047c0.889 0 1.729-0.35 2.366-0.987l4.566-4.566c0.157-0.156 0.281-0.342 0.365-0.546s0.128-0.423 0.128-0.644c0-0.221-0.044-0.44-0.128-0.644s-0.209-0.39-0.365-0.546l-6.735-6.737zM24.643 28.632c-2.101-0.035-9.291-0.599-14.94-6.25-5.667-5.667-6.216-12.882-6.25-14.941l3.376-3.376 4.354 4.354-2.177 2.177c-0.198 0.198-0.343 0.442-0.423 0.71s-0.092 0.552-0.035 0.826c0.040 0.194 1.029 4.785 3.824 7.58s7.387 3.783 7.58 3.824c0.274 0.059 0.558 0.048 0.826-0.032s0.512-0.226 0.709-0.424l2.179-2.177 4.354 4.354-3.378 3.376z"></path>
</symbol>
<symbol id="community" viewBox="0 0 34 32">
<path d="M16.953 14.793c3.061 0 5.441-2.486 5.441-5.536s-2.494-5.423-5.555-5.423-5.441 2.486-5.441 5.423c0 3.051 2.494 5.536 5.555 5.536zM16.84 6.093c0.113 0 0.113 0 0 0 1.814 0 3.287 1.469 3.287 3.276s-1.474 3.164-3.287 3.164-3.174-1.469-3.174-3.164c0-1.808 1.474-3.276 3.174-3.276z"></path>
<path d="M33.73 14.115c-2.154-1.921-4.988-2.938-7.935-2.825h-0.907c-0.227 0.904-0.567 1.695-1.020 2.373 0.68-0.113 1.247-0.113 1.927-0.113 2.154-0.113 4.308 0.565 6.008 1.808v8.135h2.267v-9.039l-0.34-0.339z"></path>
<path d="M23.188 4.059c0.567-1.356 2.154-2.034 3.628-1.469 1.36 0.565 2.041 2.147 1.474 3.615-0.453 1.017-1.474 1.695-2.494 1.695-0.227 0-0.567 0-0.794-0.113 0.113 0.565 0.113 1.13 0.113 1.582v0.678c0.227 0 0.453 0.113 0.68 0.113 2.834 0 5.101-2.26 5.101-4.971 0-2.825-2.267-5.084-4.988-5.084-1.814 0-3.401 0.904-4.308 2.486 0.567 0.339 1.134 0.791 1.587 1.469z"></path>
<path d="M10.265 13.776c-0.453-0.678-0.794-1.469-1.020-2.373h-0.907c-2.947-0.113-5.781 0.904-7.935 2.712l-0.34 0.339v9.039h2.267v-8.135c1.814-1.243 3.854-1.921 6.008-1.808 0.68 0 1.36 0.113 1.927 0.226z"></path>
<path d="M8.338 10.048c0.227 0 0.453 0 0.68-0.113v-0.678c0-0.565 0-1.13 0.113-1.582-0.227 0.113-0.567 0.113-0.794 0.113-1.474 0-2.721-1.243-2.721-2.712s1.247-2.712 2.721-2.712c1.134 0 2.154 0.678 2.607 1.695 0.453-0.565 1.134-1.13 1.7-1.582-1.474-2.373-4.534-3.163-6.915-1.695s-3.174 4.519-1.7 6.892c0.907 1.469 2.494 2.373 4.308 2.373z"></path>
<path d="M26.249 20.894l-0.227-0.339c-2.267-2.486-5.441-3.954-8.842-3.841-3.401-0.113-6.688 1.356-8.956 3.841l-0.227 0.339v8.587c0 1.017 0.794 1.921 1.927 1.921h14.51c1.020 0 1.927-0.904 1.927-1.921v-8.587h-0.113zM23.982 29.141h-13.717v-7.457c1.814-1.808 4.308-2.712 6.915-2.712 2.494-0.113 4.988 0.904 6.802 2.712v7.457z"></path>
</symbol>
<symbol id="facebook" viewBox="0 0 32 32">
<path d="M29 0h-26c-1.65 0-3 1.35-3 3v26c0 1.65 1.35 3 3 3h13v-14h-4v-4h4v-2c0-3.306 2.694-6 6-6h4v4h-4c-1.1 0-2 0.9-2 2v2h6l-1 4h-5v14h9c1.65 0 3-1.35 3-3v-26c0-1.65-1.35-3-3-3z"></path>
</symbol>
<symbol id="instagram" viewBox="0 0 32 32">
<path d="M16 2.881c4.275 0 4.781 0.019 6.462 0.094 1.563 0.069 2.406 0.331 2.969 0.55 0.744 0.288 1.281 0.638 1.837 1.194 0.563 0.563 0.906 1.094 1.2 1.838 0.219 0.563 0.481 1.412 0.55 2.969 0.075 1.688 0.094 2.194 0.094 6.463s-0.019 4.781-0.094 6.463c-0.069 1.563-0.331 2.406-0.55 2.969-0.288 0.744-0.637 1.281-1.194 1.837-0.563 0.563-1.094 0.906-1.837 1.2-0.563 0.219-1.413 0.481-2.969 0.55-1.688 0.075-2.194 0.094-6.463 0.094s-4.781-0.019-6.463-0.094c-1.563-0.069-2.406-0.331-2.969-0.55-0.744-0.288-1.281-0.637-1.838-1.194-0.563-0.563-0.906-1.094-1.2-1.837-0.219-0.563-0.481-1.413-0.55-2.969-0.075-1.688-0.094-2.194-0.094-6.463s0.019-4.781 0.094-6.463c0.069-1.563 0.331-2.406 0.55-2.969 0.288-0.744 0.638-1.281 1.194-1.838 0.563-0.563 1.094-0.906 1.838-1.2 0.563-0.219 1.412-0.481 2.969-0.55 1.681-0.075 2.188-0.094 6.463-0.094zM16 0c-4.344 0-4.887 0.019-6.594 0.094-1.7 0.075-2.869 0.35-3.881 0.744-1.056 0.412-1.95 0.956-2.837 1.85-0.894 0.888-1.438 1.781-1.85 2.831-0.394 1.019-0.669 2.181-0.744 3.881-0.075 1.713-0.094 2.256-0.094 6.6s0.019 4.887 0.094 6.594c0.075 1.7 0.35 2.869 0.744 3.881 0.413 1.056 0.956 1.95 1.85 2.837 0.887 0.887 1.781 1.438 2.831 1.844 1.019 0.394 2.181 0.669 3.881 0.744 1.706 0.075 2.25 0.094 6.594 0.094s4.888-0.019 6.594-0.094c1.7-0.075 2.869-0.35 3.881-0.744 1.050-0.406 1.944-0.956 2.831-1.844s1.438-1.781 1.844-2.831c0.394-1.019 0.669-2.181 0.744-3.881 0.075-1.706 0.094-2.25 0.094-6.594s-0.019-4.887-0.094-6.594c-0.075-1.7-0.35-2.869-0.744-3.881-0.394-1.063-0.938-1.956-1.831-2.844-0.887-0.887-1.781-1.438-2.831-1.844-1.019-0.394-2.181-0.669-3.881-0.744-1.712-0.081-2.256-0.1-6.6-0.1v0z"></path>
<path d="M16 7.781c-4.537 0-8.219 3.681-8.219 8.219s3.681 8.219 8.219 8.219 8.219-3.681 8.219-8.219c0-4.537-3.681-8.219-8.219-8.219zM16 21.331c-2.944 0-5.331-2.387-5.331-5.331s2.387-5.331 5.331-5.331c2.944 0 5.331 2.387 5.331 5.331s-2.387 5.331-5.331 5.331z"></path>
<path d="M26.462 7.456c0 1.060-0.859 1.919-1.919 1.919s-1.919-0.859-1.919-1.919c0-1.060 0.859-1.919 1.919-1.919s1.919 0.859 1.919 1.919z"></path>
</symbol>
<symbol id="twitter" viewBox="0 0 32 32">
<path d="M32 7.075c-1.175 0.525-2.444 0.875-3.769 1.031 1.356-0.813 2.394-2.1 2.887-3.631-1.269 0.75-2.675 1.3-4.169 1.594-1.2-1.275-2.906-2.069-4.794-2.069-3.625 0-6.563 2.938-6.563 6.563 0 0.512 0.056 1.012 0.169 1.494-5.456-0.275-10.294-2.888-13.531-6.862-0.563 0.969-0.887 2.1-0.887 3.3 0 2.275 1.156 4.287 2.919 5.463-1.075-0.031-2.087-0.331-2.975-0.819 0 0.025 0 0.056 0 0.081 0 3.181 2.263 5.838 5.269 6.437-0.55 0.15-1.131 0.231-1.731 0.231-0.425 0-0.831-0.044-1.237-0.119 0.838 2.606 3.263 4.506 6.131 4.563-2.25 1.762-5.075 2.813-8.156 2.813-0.531 0-1.050-0.031-1.569-0.094 2.913 1.869 6.362 2.95 10.069 2.95 12.075 0 18.681-10.006 18.681-18.681 0-0.287-0.006-0.569-0.019-0.85 1.281-0.919 2.394-2.075 3.275-3.394z"></path>
</symbol>
<symbol id="youtube" viewBox="0 0 32 32">
<path d="M31.681 9.6c0 0-0.313-2.206-1.275-3.175-1.219-1.275-2.581-1.281-3.206-1.356-4.475-0.325-11.194-0.325-11.194-0.325h-0.012c0 0-6.719 0-11.194 0.325-0.625 0.075-1.987 0.081-3.206 1.356-0.963 0.969-1.269 3.175-1.269 3.175s-0.319 2.588-0.319 5.181v2.425c0 2.587 0.319 5.181 0.319 5.181s0.313 2.206 1.269 3.175c1.219 1.275 2.819 1.231 3.531 1.369 2.563 0.244 10.881 0.319 10.881 0.319s6.725-0.012 11.2-0.331c0.625-0.075 1.988-0.081 3.206-1.356 0.962-0.969 1.275-3.175 1.275-3.175s0.319-2.587 0.319-5.181v-2.425c-0.006-2.588-0.325-5.181-0.325-5.181zM12.694 20.15v-8.994l8.644 4.513-8.644 4.481z"></path>
</symbol>
</defs>
</svg>
